<svg width="38" height="9" viewBox="0 0 38 9" fill="none" xmlns="http://www.w3.org/2000/svg">
<g clip-path="url(#clip0_481_549)">
<path d="M5.332 9V5.364H4.36V4.188H5.332V0.599999H6.616V9H5.332ZM1.48 9V0.599999H2.776V4.188H3.736V5.364H2.776V9H1.48ZM11.4858 9L11.2098 7.776H9.63775L9.90175 6.528H10.8738L9.56575 0.599999H10.8378L12.7698 9H11.4858ZM7.46575 9L9.04975 1.944H9.24175L9.75775 4.38L8.73775 9H7.46575ZM15.8792 9.06C15.4472 9.06 15.0792 8.98 14.7752 8.82C14.4712 8.66 14.2232 8.46 14.0312 8.22C13.8472 7.972 13.7112 7.724 13.6232 7.476C13.5432 7.22 13.5032 7.004 13.5032 6.828V2.784C13.5032 2.6 13.5472 2.384 13.6352 2.136C13.7232 1.88 13.8592 1.632 14.0432 1.392C14.2272 1.152 14.4712 0.952 14.7752 0.792C15.0792 0.624 15.4472 0.539999 15.8792 0.539999V1.824C15.6712 1.824 15.4992 1.864 15.3632 1.944C15.2272 2.016 15.1152 2.108 15.0272 2.22C14.9472 2.332 14.8872 2.44 14.8472 2.544C14.8072 2.64 14.7872 2.72 14.7872 2.784V6.828C14.7872 6.892 14.8072 6.976 14.8472 7.08C14.8872 7.176 14.9472 7.28 15.0272 7.392C15.1152 7.504 15.2272 7.596 15.3632 7.668C15.5072 7.74 15.6792 7.776 15.8792 7.776V9.06ZM16.4912 9.06V7.776C16.5952 7.76 16.7072 7.732 16.8272 7.692C16.9552 7.644 17.0712 7.572 17.1752 7.476C17.2872 7.38 17.3672 7.26 17.4152 7.116C17.4392 7.052 17.4552 6.984 17.4632 6.912C17.4712 6.832 17.4752 6.76 17.4752 6.696C17.4832 6.656 17.4872 6.624 17.4872 6.6C17.4872 6.568 17.4872 6.54 17.4872 6.516L18.7352 6.816C18.7352 7.24 18.6232 7.624 18.3992 7.968C18.1832 8.304 17.9032 8.572 17.5592 8.772C17.2232 8.964 16.8672 9.06 16.4912 9.06ZM17.4752 3.132C17.4752 3.1 17.4752 3.068 17.4752 3.036C17.4752 3.004 17.4752 2.972 17.4752 2.94C17.4752 2.876 17.4712 2.812 17.4632 2.748C17.4552 2.676 17.4392 2.608 17.4152 2.544C17.3592 2.4 17.2872 2.28 17.1992 2.184C17.1112 2.088 17.0192 2.016 16.9232 1.968C16.8352 1.92 16.7512 1.888 16.6712 1.872C16.5912 1.848 16.5312 1.832 16.4912 1.824V0.539999C16.7712 0.539999 17.0432 0.604 17.3072 0.732C17.5712 0.86 17.8112 1.032 18.0272 1.248C18.2432 1.456 18.4152 1.696 18.5432 1.968C18.6712 2.24 18.7352 2.52 18.7352 2.808L17.4752 3.132ZM23.4029 9L21.3389 4.908L23.3549 0.599999H24.6629L22.6589 4.908L24.7109 9H23.4029ZM19.5389 9V0.599999H20.8349V9H19.5389ZM25.41 9V0.599999H29.778V1.872H26.706V4.188H28.65V5.472H26.706V7.716H29.778V9H25.41ZM32.65 9V7.716C32.802 7.716 32.966 7.708 33.142 7.692C33.318 7.668 33.482 7.624 33.634 7.56C33.786 7.488 33.91 7.38 34.006 7.236C34.11 7.084 34.162 6.884 34.162 6.636V2.964C34.162 2.788 34.126 2.636 34.054 2.508C33.982 2.372 33.878 2.26 33.742 2.172C33.614 2.076 33.458 2.004 33.274 1.956C33.09 1.908 32.882 1.884 32.65 1.884V0.599999C33.09 0.599999 33.482 0.664 33.826 0.792C34.178 0.912 34.47 1.08 34.702 1.296C34.942 1.512 35.126 1.764 35.254 2.052C35.382 2.332 35.446 2.636 35.446 2.964V6.636C35.446 7.124 35.354 7.524 35.17 7.836C34.986 8.148 34.75 8.388 34.462 8.556C34.182 8.724 33.878 8.84 33.55 8.904C33.23 8.968 32.93 9 32.65 9ZM30.742 9V0.599999H32.038V9H30.742Z" fill="#F45555"/>
</g>
<defs>
<clipPath id="clip0_481_549">
<rect width="38" height="9" fill="white"/>
</clipPath>
</defs>
</svg>
